# xmcd
#
# Track frame offsets:
#	150
#	35427
#	65452
#	120835
#	146782
#	172680
#	207467
#	219407
#	254737
#	291652
#
# Disc length: 4189
#
# Revision: 1
# Processed by: cddbd v1.5.1PL0 Copyright (c) Steve Scherf et al.
# Submitted via: CDex 1.50Beta6
# Normalized: r0:TDELIM( - )
#
DISCID=9d105b0a
DTITLE=32 Gems from 32 Jazz - Disc 2
DYEAR=1900
DGENRE=Jazz
TTITLE0=Naima - Cedar Walton
TTITLE1=Tetragon - Woody Shaw
TTITLE2=The Free Slave - Roy Brooks
TTITLE3=Blue in Green - Wallace Roney
TTITLE4=Turkish Women at the Bath - Pete LaRoca Sims
TTITLE5=Theme for Malcolm - Donald Byrd
TTITLE6=It Feels So Good - Mose Allison
TTITLE7=Ruby My Dear - Charlie Rouse
TTITLE8=Passion Dance - Rahsaan Roland Kirk
TTITLE9=Oleo - Kenny Barron
EXTD=
EXTT0=
EXTT1=
EXTT2=
EXTT3=
EXTT4=
EXTT5=
EXTT6=
EXTT7=
EXTT8=
EXTT9=
PLAYORDER=
